<svg width="75" height="75" viewBox="0 0 75 75" fill="none" xmlns="http://www.w3.org/2000/svg">
<g clip-path="url(#clip0_518_3370)">
<path fill-rule="evenodd" clip-rule="evenodd" d="M75 0H0V75H75V0ZM31.8538 19.6861C31.6941 19.6775 31.5385 19.6691 31.3874 19.6605C17.5127 18.871 10.9001 27.247 10.9001 33.3846V36.2413H23.0145V34.9841C23.1779 31.027 25.0377 29.0415 29.6376 29.0415H31.1706C36.9837 29.0415 37.756 32.1959 37.756 33.8414C37.756 36.0137 36.2172 38.6408 31.4263 38.6408H25.1658C16.9244 38.6408 8.30052 43.1131 8.61452 52.6952C8.62094 52.8944 8.61676 53.1765 8.6151 53.2882L8.61452 53.3337C8.91179 60.0075 15.6361 66.1197 23.6374 66.1197C26.6665 66.1197 28.0092 65.9851 30.9788 65.375C32.1613 65.1323 33.5566 64.5204 34.7976 63.9761C36.0039 63.4472 37.0644 62.9821 37.642 62.9821V65.6851H51.6587L49.8697 61.9537C49.8697 61.9537 49.8416 45.3391 49.8416 34.7172C49.8416 30.2671 47.3643 25.4443 42.3971 22.3802C38.6241 20.0521 34.6197 19.8356 31.8538 19.6861ZM37.4884 49.5201C37.4751 49.7565 37.4619 49.9907 37.4619 50.272C37.4619 55.2718 33.0577 56.6998 31.2718 57.057C29.1193 57.4869 28.7688 57.5457 26.2719 57.4142C24.0105 57.2955 20.8422 55.252 20.8422 52.3151C20.8422 49.7669 23.0479 47.744 26.0992 47.744H35.1273C36.0467 47.7436 37.4132 47.1721 37.4132 47.1721C37.552 48.3945 37.5199 48.9632 37.4884 49.5201ZM53.5267 21.1227H66.389V65.6913H53.5267V21.1227ZM66.389 6.49513H53.5267V18.4948H66.389V6.49513Z" fill="#545454"/>
</g>
<defs>
<clipPath id="clip0_518_3370">
<rect width="75" height="75" fill="white"/>
</clipPath>
</defs>
</svg>
