<svg width="219" height="75" viewBox="0 0 219 75" fill="none" xmlns="http://www.w3.org/2000/svg">
<g clip-path="url(#clip0_518_3336)">
<path d="M33.7613 36.444H43.1503V49.659C40.2208 50.6022 36.5218 51.1195 32.6767 51.1195C17.0933 51.1195 7.93443 37.7468 7.93443 24.6866C7.93443 11.8774 16.2188 2.89245 27.7766 2.89245C35.0903 2.89245 39.3458 5.37532 43.153 8.83389V13.1454L50.2917 5.99168C45.7764 2.93038 39.2382 0.0209961 29.8928 0.0209961C9.37736 0.0209961 0 14.729 0 26.8161C0 44.021 12.5052 54.3854 28.22 54.3854C35.8397 54.3854 42.6052 53.2198 50.4202 51.0407V37.3875C50.4202 36.6894 50.7263 36.2103 51.184 35.7897L53.65 33.3185H36.9037L33.7613 36.444Z" fill="#545454"/>
<path d="M75.8213 18.4851C64.0128 18.4851 56.6963 27.1318 56.6963 36.3099C56.6963 44.2319 62.5906 53.6375 74.5329 53.6375C86.0207 53.6375 93.0691 44.9739 93.0691 35.6351C93.0691 26.9362 86.181 18.4883 75.8213 18.4883V18.4851ZM73.8621 21.006C82.1875 21.006 85.8951 31.8754 85.8951 39.628C85.8951 51.1575 77.2639 51.3853 76.2321 51.3853C72.2823 51.3853 69.5217 48.9932 67.4553 45.8557C65.6364 42.9641 63.8583 37.592 63.8583 32.3428C63.8583 27.1141 65.5662 24.561 68.2541 22.6827C70.4519 21.2748 72.5099 21.006 73.8592 21.006H73.8621Z" fill="#545454"/>
<path d="M153.013 18.4822C142.699 18.4822 137.12 25.0255 137.12 32.3311C137.12 37.8928 141.096 44.1673 149.299 44.1673H151.374C151.374 44.1673 150.809 45.5432 150.806 46.8723C150.806 48.8326 151.508 49.9335 153.001 51.6277C138.886 52.4895 133.214 58.1944 133.214 64.3258C133.214 69.695 138.344 74.9792 149.127 74.9792C161.891 74.9792 168.502 67.8777 168.502 60.9083C168.502 55.9951 166.06 53.3018 159.874 48.6573C158.055 47.2406 157.702 46.3383 157.702 45.2779C157.702 43.759 158.609 42.7538 158.941 42.3743C159.527 41.7551 160.542 41.0482 160.92 40.7093C162.999 38.945 165.934 36.3338 165.934 31.1223C165.934 27.5469 164.45 24.471 161.069 21.5908H165.197L168.298 18.4828H153.013V18.4822ZM150.168 20.8074C152.039 20.8074 153.601 21.4705 155.251 22.8463C157.082 24.4997 160.006 28.9426 160.006 34.4401C160.006 40.3728 155.406 41.9969 152.917 41.9969C151.698 41.9969 150.238 41.6552 149.002 40.8081C146.256 39.0236 143.53 34.2736 143.53 28.6213C143.53 23.521 146.562 20.8074 150.168 20.8074ZM154.252 53.88C155.038 53.88 155.604 53.9445 155.604 53.9445C155.604 53.9445 157.461 55.2736 158.758 56.2665C161.778 58.6588 163.661 60.4875 163.661 63.7448C163.661 68.2228 159.516 71.7339 152.803 71.7339C145.434 71.7339 139.802 68.2958 139.802 62.6817C139.802 58.0311 143.661 54.0286 154.252 53.88Z" fill="#545454"/>
<path d="M170.531 52.6123H184.689L186.845 50.451L182.785 49.9427C181.692 49.8083 181.042 48.8619 181.042 47.9447V5.0894C181.042 4.24521 181.433 3.81288 181.718 3.538L184.272 0.979126H172.198L169.056 4.12807H173.749V48.5198C173.749 49.1508 173.551 49.5801 173.125 50.0212L170.531 52.6123Z" fill="#545454"/>
<path d="M203.873 18.4851C195.967 18.4851 187.569 24.523 187.569 35.3632C187.569 44.316 193.595 53.6375 204.852 53.6375C207.659 53.6375 209.971 53.2756 212.137 52.2795C214.46 51.2075 216.696 49.4665 218.328 47.2786C215.247 48.8355 212.734 49.8579 209.396 49.8579C203.053 49.8579 196.938 45.2718 194.798 36.8415L217.205 27.7657C215.911 23.1416 212.262 18.4851 203.876 18.4851H203.873ZM202.409 20.9651C206.651 20.9651 209.717 24.4617 209.717 27.1987C209.717 28.0838 209.163 28.5512 208.067 28.9835L194.294 34.5657C194.294 34.5657 193.921 32.8277 193.921 30.9494C193.921 23.0713 199.605 20.9651 202.409 20.9651Z" fill="#545454"/>
<path d="M115.891 18.4851C104.082 18.4851 96.7656 27.1318 96.7656 36.3099C96.7656 44.2319 102.66 53.6375 114.602 53.6375C126.09 53.6375 133.138 44.9739 133.138 35.6351C133.138 26.9362 126.25 18.4883 115.891 18.4883V18.4851ZM113.932 21.006C122.257 21.006 125.964 31.8754 125.964 39.628C125.964 51.1575 117.333 51.3853 116.301 51.3853C112.352 51.3853 109.591 48.9932 107.525 45.8557C105.706 42.9641 103.928 37.592 103.928 32.3428C103.928 27.1141 105.636 24.561 108.323 22.6827C110.521 21.2748 112.579 21.006 113.929 21.006H113.932Z" fill="#545454"/>
</g>
<defs>
<clipPath id="clip0_518_3336">
<rect width="218.327" height="75" fill="white"/>
</clipPath>
</defs>
</svg>
