<svg width="41" height="75" viewBox="0 0 41 75" fill="none" xmlns="http://www.w3.org/2000/svg">
<g clip-path="url(#clip0_518_3350)">
<path d="M38.7782 59.1405H38.498V58.9824H39.2526V59.1405H38.9741V59.929H38.7782V59.1405ZM40.2832 59.1816H40.2788L40.0009 59.9293H39.8738L39.5979 59.1816H39.5946V59.9293H39.4099V58.9827H39.6817L39.9375 59.653L40.1925 58.9827H40.4633V59.9293H40.283L40.2832 59.1816Z" fill="#545454"/>
<path d="M13.6878 39.7837C13.6878 39.7837 11.7377 40.9268 15.0755 41.3136C19.1191 41.7786 21.1858 41.7119 25.6419 40.8618C25.6419 40.8618 26.8134 41.6022 28.4496 42.2436C18.4602 46.5591 5.84163 41.9936 13.6878 39.7837ZM12.4671 34.1522C12.4671 34.1522 10.28 35.7841 13.6202 36.1324C17.9397 36.5816 21.351 36.6183 27.2537 35.4726C27.2537 35.4726 28.0702 36.3069 29.354 36.7632C17.2761 40.3231 3.82367 37.0439 12.4671 34.1522Z" fill="#545454"/>
<path d="M22.7576 24.5993C25.219 27.4558 22.111 30.0264 22.111 30.0264C22.111 30.0264 28.3606 26.7742 25.4905 22.7017C22.8097 18.9038 20.7539 17.0169 31.8831 10.5107C31.8832 10.5106 14.414 14.9085 22.7576 24.5993Z" fill="#545454"/>
<path d="M35.9696 43.949C35.9696 43.949 37.4126 45.1476 34.3803 46.0747C28.6143 47.8354 10.3816 48.3671 5.31663 46.145C3.49591 45.3465 6.91028 44.2385 7.98432 44.006C9.10442 43.7611 9.74453 43.8067 9.74453 43.8067C7.71969 42.3689 -3.34316 46.6298 4.12514 47.8503C24.4923 51.1797 41.2527 46.351 35.9696 43.949ZM14.6257 28.3172C14.6257 28.3172 5.35143 30.5377 11.3415 31.344C13.8707 31.6853 18.9125 31.6081 23.6088 31.2115C27.4469 30.8851 31.301 30.1914 31.301 30.1914C31.301 30.1914 29.9476 30.7756 28.9685 31.4494C19.5506 33.9462 1.35692 32.7846 6.59463 30.2307C11.0242 28.0724 14.6257 28.3172 14.6257 28.3172ZM31.2627 37.6911C40.8365 32.6764 36.4101 27.8572 33.3203 28.5066C32.563 28.6655 32.2254 28.8032 32.2254 28.8032C32.2254 28.8032 32.5066 28.3593 33.0433 28.1671C39.1556 26.001 43.8564 34.5557 31.0702 37.944C31.0702 37.944 31.2186 37.8106 31.2627 37.6911Z" fill="#545454"/>
<path d="M25.4909 0.00488281C25.4909 0.00488281 30.7929 5.35105 20.4621 13.5723C12.1777 20.1669 18.573 23.927 20.4586 28.2233C15.6231 23.8253 12.0743 19.9539 14.4551 16.3507C17.9494 11.0616 27.6301 8.49716 25.4909 0.00488281Z" fill="#545454"/>
<path d="M15.566 51.2798C24.7556 51.8727 38.8672 50.9508 39.2013 46.5679C39.2013 46.5679 38.559 48.2293 31.6066 49.549C23.7632 51.0367 14.0892 50.8632 8.35156 49.9096C8.35184 49.9093 9.52627 50.8894 15.566 51.2798Z" fill="#545454"/>
<path d="M14.0602 68.0277C13.1933 68.7856 12.2777 69.2111 11.456 69.2111C10.2832 69.2111 9.64959 68.5022 9.64959 67.3653C9.64959 66.1354 10.3286 65.2362 13.0521 65.2362H14.06L14.0602 68.0277ZM16.4522 70.7482V62.327C16.4522 60.1756 15.235 58.7562 12.3002 58.7562C10.5869 58.7562 9.0861 59.1827 7.86628 59.7266L8.21838 61.2172C9.1788 60.8619 10.422 60.5311 11.6422 60.5311C13.3329 60.5311 14.0602 61.2172 14.0602 62.6358V63.7002H13.2164C9.1088 63.7002 7.25589 65.3075 7.25589 67.7198C7.25589 69.8018 8.47695 70.9852 10.776 70.9852C12.2539 70.9852 13.3571 70.3701 14.3883 69.4701L14.5755 70.7484L16.4522 70.7482ZM24.4353 70.7482H21.452L17.8614 58.9695H20.4669L22.6948 66.2062L23.1901 68.3827C24.3172 65.2359 25.1145 62.0434 25.5132 58.9695H28.0476C27.3685 62.848 26.1466 67.1053 24.4353 70.7482ZM35.8804 68.0277C35.0119 68.7856 34.0948 69.2111 33.273 69.2111C32.1022 69.2111 31.467 68.5022 31.467 67.3653C31.467 66.1354 32.1474 65.2362 34.8707 65.2362H35.8804V68.0277ZM38.2722 70.7482V62.327C38.2722 60.1756 37.0521 58.7562 34.1205 58.7562C32.4061 58.7562 30.9047 59.1827 29.6854 59.7266L30.0371 61.2172C30.9978 60.8619 32.2434 60.5311 33.4626 60.5311C35.152 60.5311 35.8804 61.2172 35.8804 62.6358V63.7002H35.0351C30.9264 63.7002 29.0742 65.3075 29.0742 67.7198C29.0742 69.8018 30.2943 70.9852 32.593 70.9852C34.0718 70.9852 35.1746 70.3701 36.2075 69.4701L36.3953 70.7484L38.2722 70.7482ZM4.63304 72.7483C3.95113 73.7519 2.84972 74.5459 1.64393 74.9951L0.462891 73.5941C1.38068 73.1194 2.16781 72.3528 2.53352 71.6388C2.84986 71.0037 2.9808 70.1852 2.9808 68.2277V54.7805H5.52222V68.0435C5.52208 70.6603 5.31454 71.7174 4.63304 72.7483Z" fill="#545454"/>
</g>
<defs>
<clipPath id="clip0_518_3350">
<rect width="40" height="75" fill="white" transform="translate(0.462891)"/>
</clipPath>
</defs>
</svg>
