<svg width="76" height="75" viewBox="0 0 76 75" fill="none" xmlns="http://www.w3.org/2000/svg">
<g clip-path="url(#clip0_518_3364)">
<path d="M35.855 0.0586162C35.6939 0.0732632 35.1812 0.124528 34.7198 0.161145C24.0788 1.12052 14.1115 6.86215 7.79864 15.687C4.28336 20.5937 2.03504 26.1596 1.18551 32.055C0.88525 34.1129 0.848633 34.7208 0.848633 37.511C0.848633 40.3013 0.88525 40.9091 1.18551 42.967C3.22145 57.0355 13.2327 68.8556 26.8105 73.2351C29.2419 74.0187 31.8051 74.5533 34.7198 74.8755C35.855 75 40.7617 75 41.8969 74.8755C46.9281 74.3189 51.1904 73.0739 55.3941 70.9282C56.0386 70.5986 56.1631 70.5107 56.0752 70.4375C56.0166 70.3935 53.2703 66.7098 49.9747 62.2571L43.9841 54.1647L36.4775 43.0549C32.347 36.9471 28.9489 31.9525 28.9196 31.9525C28.8903 31.9451 28.861 36.8812 28.8464 42.9084C28.8244 53.4616 28.8171 53.8864 28.6853 54.1354C28.4949 54.4942 28.3484 54.6407 28.0408 54.8018C27.8064 54.919 27.6014 54.941 26.4955 54.941H25.2286L24.8917 54.7286C24.672 54.5894 24.5109 54.4063 24.401 54.194L24.2472 53.8644L24.2619 39.1808L24.2838 24.4898L24.5109 24.2042C24.628 24.0504 24.877 23.8527 25.0528 23.7575C25.3531 23.611 25.4703 23.5964 26.7372 23.5964C28.2312 23.5964 28.4802 23.6549 28.8684 24.0797C28.9782 24.1969 33.0428 30.3193 37.9056 37.6941C42.7684 45.0689 49.4181 55.1387 52.6844 60.0821L58.6164 69.068L58.9167 68.8703C61.5751 67.1419 64.3873 64.6812 66.6137 62.118C71.352 56.6766 74.4059 50.0415 75.4312 42.967C75.7315 40.9091 75.7681 40.3013 75.7681 37.511C75.7681 34.7208 75.7315 34.1129 75.4312 32.055C73.3953 17.9866 63.384 6.16642 49.8063 1.78696C47.4115 1.01067 44.8629 0.476056 42.0067 0.153822C41.3037 0.0805867 36.4628 2.81744e-05 35.855 0.0586162ZM51.1904 22.7175C51.5419 22.8933 51.8275 23.2302 51.9301 23.5817C51.9887 23.7721 52.0033 27.844 51.9887 37.0203L51.9667 50.188L49.6451 46.6288L47.3163 43.0696V33.4977C47.3163 27.3094 47.3456 23.8307 47.3895 23.6623C47.5067 23.2522 47.763 22.9299 48.1145 22.7395C48.4148 22.5857 48.5246 22.5711 49.6744 22.5711C50.7583 22.5711 50.9487 22.5857 51.1904 22.7175Z" fill="#545454"/>
<path d="M58.2507 69.2291C57.9944 69.3902 57.9138 69.5001 58.1408 69.3756C58.3019 69.2804 58.5656 69.0826 58.5217 69.0753C58.4997 69.0753 58.3752 69.1486 58.2507 69.2291ZM57.7454 69.5587C57.6135 69.6612 57.6135 69.6685 57.7747 69.588C57.8625 69.544 57.9358 69.4928 57.9358 69.4781C57.9358 69.4195 57.8992 69.4342 57.7454 69.5587ZM57.3792 69.7784C57.2474 69.8809 57.2474 69.8882 57.4085 69.8077C57.4964 69.7637 57.5696 69.7125 57.5696 69.6978C57.5696 69.6392 57.533 69.6539 57.3792 69.7784ZM57.013 69.9981C56.8812 70.1006 56.8812 70.1079 57.0423 70.0274C57.1302 69.9834 57.2034 69.9322 57.2034 69.9175C57.2034 69.8589 57.1668 69.8736 57.013 69.9981ZM56.4564 70.291C56.1781 70.4375 56.1928 70.4961 56.4711 70.3569C56.5956 70.291 56.6908 70.2251 56.6908 70.2105C56.6908 70.1592 56.6835 70.1665 56.4564 70.291Z" fill="#545454"/>
</g>
<defs>
<clipPath id="clip0_518_3364">
<rect width="75" height="75" fill="white" transform="translate(0.808594)"/>
</clipPath>
</defs>
</svg>
