<svg width="67" height="75" viewBox="0 0 67 75" fill="none" xmlns="http://www.w3.org/2000/svg">
<g clip-path="url(#clip0_518_3360)">
<path d="M66.714 37.5067C66.714 33.1464 61.2302 29.0142 52.8227 26.4517C54.7629 17.919 53.9006 11.1304 50.101 8.95699C49.2252 8.44717 48.2012 8.20568 47.0829 8.20568V11.1975C47.7027 11.1975 48.2012 11.3182 48.6189 11.5463C50.4513 12.5928 51.2463 16.5774 50.6265 21.7024C50.4783 22.9635 50.2357 24.2917 49.9393 25.6468C47.2985 25.0028 44.4151 24.5064 41.3835 24.1844C39.5646 21.7024 37.6783 19.4485 35.7785 17.4763C40.1709 13.4112 44.2939 11.1841 47.0964 11.1841V8.19226C43.3911 8.19226 38.5406 10.8218 33.6362 15.3834C28.7318 10.8487 23.8813 8.24593 20.176 8.24593V11.2377C22.9651 11.2377 27.1015 13.4514 31.4939 17.4897C29.6076 19.4619 27.7213 21.7024 25.9293 24.1844C22.8842 24.5064 20.0009 25.0028 17.36 25.6602C17.0502 24.3186 16.8211 23.0172 16.6594 21.7695C16.0262 16.6445 16.8076 12.6599 18.6266 11.6C19.0308 11.3585 19.5562 11.2512 20.176 11.2512V8.25934C19.0442 8.25934 18.0203 8.50083 17.131 9.01065C13.3449 11.1841 12.4961 17.9593 14.4497 26.4652C6.06913 29.0411 0.612305 33.1599 0.612305 37.5067C0.612305 41.867 6.09608 45.9992 14.5036 48.5617C12.5634 57.0944 13.4257 63.883 17.2253 66.0564C18.1011 66.5663 19.1251 66.8077 20.2569 66.8077C23.9621 66.8077 28.8126 64.1782 33.717 59.6166C38.6215 64.1513 43.472 66.7541 47.1772 66.7541C48.309 66.7541 49.333 66.5126 50.2223 66.0028C54.0084 63.8293 54.8572 57.0541 52.9035 48.5483C61.2572 45.9858 66.714 41.8536 66.714 37.5067ZM49.1713 28.5581C48.6728 30.2888 48.053 32.0731 47.3524 33.8575C46.7999 32.7842 46.2206 31.7109 45.5873 30.6376C44.9675 29.5643 44.3073 28.5178 43.6471 27.4982C45.5604 27.7799 47.4063 28.1288 49.1713 28.5581ZM43.0004 42.8464C41.9494 44.6576 40.8716 46.3748 39.7532 47.9714C37.7457 48.1458 35.7111 48.2397 33.6632 48.2397C31.6286 48.2397 29.5941 48.1458 27.6 47.9848C26.4817 46.3883 25.3903 44.6844 24.3394 42.8866C23.3154 41.1291 22.3857 39.3447 21.5369 37.547C22.3722 35.7492 23.3154 33.9514 24.3259 32.1939C25.3769 30.3827 26.4548 28.6654 27.5731 27.0689C29.5806 26.8945 31.6152 26.8006 33.6632 26.8006C35.6977 26.8006 37.7322 26.8945 39.7263 27.0555C40.8446 28.652 41.936 30.3559 42.9869 32.1536C44.0109 33.9112 44.9406 35.6955 45.7894 37.4933C44.9406 39.2911 44.0109 41.0888 43.0004 42.8464ZM47.3524 41.1023C48.0799 42.9 48.6997 44.6978 49.2117 46.4419C47.4467 46.8712 45.5873 47.2335 43.6606 47.5152C44.3208 46.4822 44.981 45.4223 45.6008 44.3356C46.2206 43.2623 46.7999 42.1756 47.3524 41.1023ZM33.6901 55.4174C32.4371 54.1294 31.184 52.6939 29.9444 51.1242C31.1571 51.1778 32.3966 51.2181 33.6497 51.2181C34.9162 51.2181 36.1692 51.1913 37.3954 51.1242C36.1827 52.6939 34.9297 54.1294 33.6901 55.4174ZM23.6657 47.5152C21.7524 47.2335 19.9066 46.8847 18.1415 46.4553C18.64 44.7246 19.2598 42.9403 19.9605 41.1559C20.5129 42.2292 21.0922 43.3025 21.7255 44.3758C22.3588 45.4491 23.0055 46.4956 23.6657 47.5152ZM33.6227 19.5961C34.8758 20.884 36.1288 22.3195 37.3684 23.8892C36.1558 23.8356 34.9162 23.7953 33.6632 23.7953C32.3966 23.7953 31.1436 23.8222 29.9175 23.8892C31.1301 22.3195 32.3832 20.884 33.6227 19.5961ZM23.6522 27.4982C22.992 28.5313 22.3318 29.5911 21.712 30.6779C21.0922 31.7512 20.5129 32.8245 19.9605 33.8977C19.2329 32.1 18.6131 30.3022 18.1011 28.5581C19.8661 28.1422 21.7255 27.7799 23.6522 27.4982ZM11.4586 44.2953C6.68892 42.2695 3.60345 39.6131 3.60345 37.5067C3.60345 35.4004 6.68892 32.7305 11.4586 30.7181C12.6173 30.2217 13.8838 29.779 15.1908 29.3631C15.9588 31.9926 16.9693 34.7296 18.2224 37.5335C16.9828 40.3241 15.9857 43.0476 15.2312 45.6638C13.8973 45.2479 12.6308 44.7917 11.4586 44.2953ZM18.7074 63.4671C16.875 62.4206 16.08 58.436 16.6998 53.311C16.848 52.0499 17.0906 50.7217 17.387 49.3667C20.0278 50.0106 22.9112 50.507 25.9428 50.829C27.7617 53.311 29.648 55.5649 31.5478 57.5371C27.1554 61.6022 23.0324 63.8293 20.2299 63.8293C19.6236 63.8159 19.1116 63.6952 18.7074 63.4671ZM50.6669 53.2439C51.3002 58.3689 50.5187 62.3536 48.6997 63.4134C48.2955 63.6549 47.7701 63.7623 47.1503 63.7623C44.3612 63.7623 40.2248 61.5486 35.8324 57.5103C37.7187 55.5381 39.605 53.2976 41.397 50.8156C44.4421 50.4936 47.3254 49.9972 49.9663 49.3398C50.2762 50.6949 50.5187 51.9962 50.6669 53.2439ZM55.8542 44.2953C54.6955 44.7917 53.429 45.2345 52.122 45.6504C51.354 43.0208 50.3435 40.2839 49.0905 37.4799C50.33 34.6893 51.3271 31.9658 52.0816 29.3496C53.4155 29.7655 54.682 30.2217 55.8677 30.7181C60.6374 32.744 63.7228 35.4004 63.7228 37.5067C63.7094 39.6131 60.6239 42.2829 55.8542 44.2953Z" fill="#545454"/>
<path d="M33.6496 43.6379C37.0503 43.6379 39.8071 40.8929 39.8071 37.5067C39.8071 34.1205 37.0503 31.3755 33.6496 31.3755C30.249 31.3755 27.4922 34.1205 27.4922 37.5067C27.4922 40.8929 30.249 43.6379 33.6496 43.6379Z" fill="#545454"/>
</g>
<defs>
<clipPath id="clip0_518_3360">
<rect width="66.1017" height="75" fill="white" transform="translate(0.612305)"/>
</clipPath>
</defs>
</svg>
