<svg width="75" height="75" viewBox="0 0 75 75" fill="none" xmlns="http://www.w3.org/2000/svg">
<g clip-path="url(#clip0_518_3358)">
<path d="M67.8223 3.91071C66.782 6.42989 65.4624 8.82213 63.873 11.0191C56.9184 3.9693 47.4785 0.00500488 37.6437 0.00500488C17.2999 0.00500488 0.558594 16.9948 0.558594 37.6462C0.558594 47.9475 4.71983 57.8094 12.0791 64.9178L13.4469 66.1481C20.1318 71.8602 28.5988 75.0043 37.3355 75.0043C56.6775 75.0043 72.9372 59.6354 74.3146 40.0482C75.3261 30.4597 72.5519 18.3325 67.8223 3.91071ZM17.348 65.1326C16.7508 65.8845 15.8357 66.3239 14.8821 66.3239C13.1386 66.3239 11.713 64.869 11.713 63.1017C11.713 61.3343 13.1483 59.8795 14.8821 59.8795C15.6046 59.8795 16.3174 60.1333 16.876 60.602C18.2342 61.7151 18.4461 63.7559 17.348 65.1326ZM67.6682 53.8647C58.5173 66.236 38.973 62.0667 26.4411 62.6623C26.4411 62.6623 24.216 62.799 21.9813 63.17C21.9813 63.17 22.8193 62.8087 23.9078 62.3889C32.7022 59.2838 36.8635 58.6785 42.2095 55.8956C52.2755 50.7011 62.2259 39.3355 64.2968 27.5109C60.4631 38.8863 48.8463 48.6603 38.2602 52.6344C31.0069 55.3488 17.9067 57.9852 17.9067 57.9852L17.3769 57.702C8.45724 53.2983 8.18753 33.7015 24.399 27.3742C31.4982 24.6012 38.2891 26.1244 45.9566 24.2692C54.1442 22.2968 63.6129 16.0672 67.4659 7.94335C71.7813 20.9396 76.9732 41.2883 67.6682 53.8647Z" fill="#545454"/>
</g>
<defs>
<clipPath id="clip0_518_3358">
<rect width="73.9583" height="75" fill="white" transform="translate(0.558594)"/>
</clipPath>
</defs>
</svg>
