<svg width="183" height="75" viewBox="0 0 183 75" fill="none" xmlns="http://www.w3.org/2000/svg">
<g clip-path="url(#clip0_518_3344)">
<mask id="mask0_518_3344" style="mask-type:luminance" maskUnits="userSpaceOnUse" x="0" y="0" width="183" height="75">
<path d="M0.447266 0.272461H182.24V74.9937H0.447266V0.272461Z" fill="white"/>
</mask>
<g mask="url(#mask0_518_3344)">
<path fill-rule="evenodd" clip-rule="evenodd" d="M19.4224 33.8839C15.5045 32.448 13.3574 31.3311 13.3574 29.5761C13.3574 28.0867 14.592 27.236 16.7926 27.236C20.8179 27.236 24.9503 28.7784 27.795 30.1609L29.4052 20.3224C27.151 19.2586 22.5351 17.5036 16.1486 17.5036C11.6402 17.5036 7.88298 18.6735 5.1997 20.8541C2.40854 23.1408 0.959427 26.4382 0.959427 30.4269C0.959427 37.6596 5.41425 40.7444 12.6598 43.3502C17.3292 44.9988 18.8858 46.169 18.8858 47.9771C18.8858 49.7321 17.3827 50.7425 14.6455 50.7425C11.2642 50.7425 5.68274 49.0939 2.03298 46.9668L0.422852 56.9118C3.53563 58.6668 9.33209 60.4748 15.3435 60.4748C20.1199 60.4748 24.0917 59.358 26.7754 57.2308C29.7807 54.8907 31.3373 51.4341 31.3373 46.9668C31.3373 39.5742 26.7754 36.4897 19.4224 33.8839ZM57.549 28.0867L59.1591 18.3013H50.6588V6.42221L39.2302 8.28572L37.5798 18.3013L33.5601 18.9475L32.0554 28.0867H37.5633V47.2859C37.5633 52.2849 38.8514 55.7419 41.4811 57.869C43.6818 59.6241 46.8481 60.4748 51.3029 60.4748C54.7377 60.4748 56.8309 59.8901 58.28 59.5176V49.147C57.4749 49.36 55.6502 49.7321 54.4157 49.7321C51.7859 49.7321 50.6588 48.4027 50.6588 45.3713V28.0867H57.549ZM83.0759 17.7297C79.3191 17.7297 76.3134 19.6842 75.1328 23.1942L74.3277 18.3013H62.6813V59.6771H75.9914V32.8201C77.6555 30.799 80.0167 30.0683 83.237 30.0683C83.9349 30.0683 84.6861 30.0683 85.5986 30.2279V18.0488C84.6861 17.8362 83.881 17.7297 83.0759 17.7297ZM95.5279 14.2061C99.3922 14.2061 102.505 11.0686 102.505 7.23949C102.505 3.35691 99.3922 0.272461 95.5279 0.272461C91.6096 0.272461 88.4968 3.35691 88.4968 7.23949C88.4968 11.0686 91.6096 14.2061 95.5279 14.2061ZM88.8189 18.3013H102.183V59.6771H88.8189V18.3013ZM140.054 22.0239C137.693 18.9925 134.419 17.5036 130.233 17.5036C126.368 17.5036 122.987 19.099 119.82 22.4495L119.123 18.3013H107.422V74.9937L120.733 72.8134V59.5176C122.772 60.1558 124.865 60.4748 126.744 60.4748C130.072 60.4748 134.902 59.6241 138.659 55.5823C142.255 51.6997 144.08 45.6904 144.08 37.7661C144.08 30.746 142.738 25.4279 140.054 22.0239ZM128.998 47.5515C127.924 49.5726 126.261 50.6364 124.329 50.6364C122.987 50.6364 121.806 50.3703 120.733 49.8386V30.1609C122.987 27.8211 125.026 27.5551 125.778 27.5551C129.159 27.5551 130.823 31.1716 130.823 38.2447C130.823 42.2865 130.233 45.4244 128.998 47.5515ZM182.24 38.6169C182.24 32.0224 180.791 26.8104 177.946 23.1408C175.048 19.4181 170.7 17.5036 165.172 17.5036C153.847 17.5036 146.817 25.8 146.817 39.0955C146.817 46.5412 148.695 52.1253 152.398 55.6884C155.726 58.8794 160.503 60.4748 166.675 60.4748C172.364 60.4748 177.624 59.1454 180.952 56.9648L179.502 47.9241C176.228 49.6791 172.418 50.6364 168.124 50.6364C165.548 50.6364 163.777 50.1043 162.489 48.9874C161.093 47.8176 160.288 45.903 160.02 43.1907H182.079C182.132 42.5525 182.24 39.5742 182.24 38.6169ZM159.912 35.1068C160.288 29.2036 161.898 26.4382 164.957 26.4382C167.963 26.4382 169.52 29.257 169.734 35.1068H159.912Z" fill="#545454"/>
</g>
</g>
<defs>
<clipPath id="clip0_518_3344">
<rect width="181.944" height="75" fill="white" transform="translate(0.422852)"/>
</clipPath>
</defs>
</svg>
