<svg width="76" height="75" viewBox="0 0 76 75" fill="none" xmlns="http://www.w3.org/2000/svg">
<g clip-path="url(#clip0_518_3367)">
<path fill-rule="evenodd" clip-rule="evenodd" d="M0.904297 37.5V0H75.9043V75H0.904297V37.5ZM17.348 37.6312V40.6875H27.098V68.4375H34.0168V40.6875H43.7668V37.6875C43.7668 36 43.7668 34.6312 43.6918 34.5937C43.6918 34.5375 37.748 34.5187 30.5293 34.5187L17.4043 34.575V37.65L17.348 37.6312ZM65.8543 37.1812C64.5418 35.8125 63.0793 34.95 61.1668 34.5L61.2043 34.4625C59.9106 34.125 56.8168 34.0125 55.5043 34.275C51.4543 35.025 48.623 37.65 47.8168 41.4C47.5543 42.4687 47.6481 45.1312 47.9293 46.2187C48.3043 47.475 49.1106 48.9937 49.9918 49.9687C51.5293 51.5812 53.1793 52.6312 57.0606 54.2812C60.4356 55.7812 61.6356 56.4562 62.2356 57.2812C62.6668 57.9375 62.7981 58.3312 62.7981 59.1937C62.7981 60.1312 62.4981 60.8062 61.8043 61.4437C60.1918 62.9062 56.9293 63.075 54.4918 61.8187C53.6856 61.3687 52.2981 60.0562 51.6793 59.0812L51.1918 58.425L49.073 59.6625L46.2605 61.2937L45.548 61.7437C45.473 61.875 46.8043 63.8812 47.4981 64.6312C49.2606 66.5625 52.1293 68.0625 55.1293 68.625C56.5356 68.8687 59.5356 68.9062 60.8481 68.6812C65.0293 67.9875 67.9543 65.8687 69.1543 62.7375C70.2231 59.8687 69.8668 56.0437 68.273 53.6062C66.8668 51.4312 64.5418 49.9125 59.1793 47.6062C56.2731 46.3312 55.3356 45.7125 54.8293 44.6812C54.6043 44.1937 54.4918 43.8562 54.4918 43.2562C54.4918 41.2875 55.9918 40.1062 58.2418 40.2562C59.7981 40.3687 60.7918 40.9687 61.7668 42.3562C62.0668 42.8437 62.3668 43.1625 62.4418 43.1062C64.4106 41.8875 67.6543 39.6937 67.6543 39.5812C67.5793 39.2437 66.5481 37.9312 65.8543 37.1812Z" fill="#545454"/>
</g>
<defs>
<clipPath id="clip0_518_3367">
<rect width="75" height="75" fill="white" transform="translate(0.904297)"/>
</clipPath>
</defs>
</svg>
